HIERARCHY
ROOT root
{
	OFFSET	0	13.1	24.9
	CHANNELS 6  Xposition Yposition Zposition Xrotation Yrotation Zrotation
	JOINT spine_1
	{
		OFFSET	0	9.99999	0
		CHANNELS 3  Xrotation Yrotation Zrotation
		JOINT spine_2
		{
			OFFSET	0	112	-10
			CHANNELS 3  Xrotation Yrotation Zrotation
			JOINT spine_3
			{
				OFFSET	0	206.5	19.3
				CHANNELS 3  Xrotation Yrotation Zrotation
				JOINT spine_4
				{
					OFFSET	0	110.4	14.6
					CHANNELS 3  Xrotation Yrotation Zrotation
					JOINT neck_1
					{
						OFFSET	0	71.8	-50.3
						CHANNELS 3  Xrotation Yrotation Zrotation
						JOINT neck_2
						{
							OFFSET	0	86.2	-25.8
							CHANNELS 3  Xrotation Yrotation Zrotation
							JOINT head_ee
							{
								OFFSET	0	179.8	-8.7
								CHANNELS 3  Xrotation Yrotation Zrotation
								End Site
								{
									OFFSET	1	0	0
								}
							}
						}
					}
					JOINT left_clavicle
					{
						OFFSET	-43.2	22.4	-70.8
						CHANNELS 3  Xrotation Yrotation Zrotation
						JOINT left_shoulder
						{
							OFFSET	-93.9	-5.79999	48.7
							CHANNELS 3  Xrotation Yrotation Zrotation
							JOINT left_elbow
							{
								OFFSET	-291.4	-30.8	15.2
								CHANNELS 3  Xrotation Yrotation Zrotation
								JOINT left_lowarm_twist
								{
									OFFSET	-110.7	-3.89999	13.6
									CHANNELS 3  Xrotation Yrotation Zrotation
									JOINT left_hand
									{
										OFFSET	-110.7	-3.89999	13.6
										CHANNELS 3  Xrotation Yrotation Zrotation
										JOINT left_ee
										{
											OFFSET	-80.8	-5.10001	12.1
											CHANNELS 3  Xrotation Yrotation Zrotation
											End Site
											{
												OFFSET	1	0	0
											}
										}
									}
								}
							}
						}
					}
					JOINT right_clavicle
					{
						OFFSET	43.2	22.4	-70.8
						CHANNELS 3  Xrotation Yrotation Zrotation
						JOINT right_shoulder
						{
							OFFSET	93.9	-5.79999	48.7
							CHANNELS 3  Xrotation Yrotation Zrotation
							JOINT right_elbow
							{
								OFFSET	291.4	-30.8	15.2
								CHANNELS 3  Xrotation Yrotation Zrotation
								JOINT right_lowarm_twist
								{
									OFFSET	110.7	-3.89999	13.6
									CHANNELS 3  Xrotation Yrotation Zrotation
									JOINT right_hand
									{
										OFFSET	110.7	-3.89999	13.6
										CHANNELS 3  Xrotation Yrotation Zrotation
										JOINT right_ee
										{
											OFFSET	80.8	-5.10001	12.1
											CHANNELS 3  Xrotation Yrotation Zrotation
											End Site
											{
												OFFSET	1	0	0
											}
										}
									}
								}
							}
						}
					}
				}
			}
		}
	}
	JOINT left_hip
	{
		OFFSET	-82.8	-127.5	0.300001
		CHANNELS 3  Xrotation Yrotation Zrotation
		JOINT left_knee
		{
			OFFSET	-28.2	-396.7	2.2
			CHANNELS 3  Xrotation Yrotation Zrotation
			JOINT left_ankle
			{
				OFFSET	-11.7	-411.3	35.4
				CHANNELS 3  Xrotation Yrotation Zrotation
				JOINT left_toes
				{
					OFFSET	0	-60	-88.6
					CHANNELS 3  Xrotation Yrotation Zrotation
					JOINT left_foot_ee
					{
						OFFSET	-22.5	-16.5	-42.2
						CHANNELS 3  Xrotation Yrotation Zrotation
						End Site
						{
							OFFSET	1	0	0
						}
					}
				}
			}
		}
	}
	JOINT right_hip
	{
		OFFSET	82.8	-127.5	0.300001
		CHANNELS 3  Xrotation Yrotation Zrotation
		JOINT right_knee
		{
			OFFSET	28.2	-396.7	2.2
			CHANNELS 3  Xrotation Yrotation Zrotation
			JOINT right_ankle
			{
				OFFSET	11.7	-411.3	35.4
				CHANNELS 3  Xrotation Yrotation Zrotation
				JOINT right_toes
				{
					OFFSET	0	-60	-88.6
					CHANNELS 3  Xrotation Yrotation Zrotation
					JOINT right_foot_ee
					{
						OFFSET	22.5	-16.5	-42.2
						CHANNELS 3  Xrotation Yrotation Zrotation
						End Site
						{
							OFFSET	1	0	0
						}
					}
				}
			}
		}
	}
}
MOTION
Frames: 12
Frame Time: 0.02
682.976 711.122 -529.525 -173.65 -80.5078 -177.128 -3.1456 0.898602 3.68727 -3.13828 0.662319 3.73688 -3.08372 -0.341703 3.77965 -3.10356 0.25907 3.7862 -4.66627 7.17142 -8.72087 -4.27567 19.7276 -7.79518 -0.0 0.0 -0.0 -0.0729715 21.5589 2.40141 -16.9377 -29.5683 63.2898 0.35945 -10.0965 0.031753 10.2007 0.246193 -1.27808 -0.170762 25.1325 8.99787 -0.0 0.0 -0.0 11.3638 26.7375 -21.8507 3.88865 23.5253 -47.6401 3.50896 60.0735 -2.02933 -12.1334 0.581908 -1.43517 -2.18713 8.10253 18.5228 0.0 0.0 0.0 29.0411 21.4929 -0.700159 5.75352 -0.279314 -0.838112 -13.5598 20.4245 2.073 -10.4465 0.0 0.0 -0.0 0.0 -0.0 -15.6265 29.0122 3.13903 -15.0662 -0.321769 -2.28304 31.9146 -8.19536 4.09245 -3.74352 0.0 0.0 0.0 0.0 0.0 
699.166 708.517 -535.055 -175.362 -79.86 -178.793 -3.1372 0.958369 3.74093 -3.1297 0.718558 3.79423 -3.07031 -0.30148 3.8498 -3.09085 0.309844 3.84914 -4.72634 7.20562 -8.917 -4.32392 19.9346 -7.98247 -0.0 0.0 -0.0 0.182395 21.3403 2.74176 -16.4856 -29.8466 63.425 0.370058 -10.3881 0.0336392 10.2038 0.246233 -1.27847 -0.317191 25.0639 8.13728 -0.0 0.0 -0.0 11.1681 27.4036 -21.3304 3.74223 23.2084 -47.2318 3.50483 60.0444 -2.02575 -12.3157 0.592939 -1.45572 -1.99694 7.11482 16.7326 0.0 0.0 0.0 28.9447 21.9288 -0.148183 6.17728 -0.303201 -0.898692 -13.3646 20.3867 2.0425 -10.188 0.0 0.0 -0.0 0.0 -0.0 -16.0004 29.2069 3.29222 -14.9548 -0.321607 -2.26595 32.3364 -8.42201 4.13669 -3.70425 0.0 0.0 0.0 0.0 0.0 
731.873 716.906 -540.69 -178.265 -79.2279 179.285 -3.52508 0.995192 3.76593 -3.51751 0.75372 3.82151 -3.4543 -0.300706 3.88342 -3.4752 0.315906 3.88221 -1.99659 6.96481 -8.01414 -1.5339 18.9035 -7.60343 -0.0 0.0 -0.0 0.432457 21.1032 3.07585 -16.1097 -30.1379 63.5988 0.377834 -10.6015 0.0350557 10.4745 0.249645 -1.31288 -0.350975 25.1423 7.97488 -0.0 0.0 -0.0 11.2105 27.6247 -21.3996 1.80164 22.6708 -47.7968 3.48293 59.8889 -2.00678 -13.5525 0.669515 -1.59423 -1.895 6.33892 15.6675 0.0 0.0 0.0 29.3427 22.1886 0.106133 -3.49426 0.128016 0.520898 -10.9595 19.3169 1.66441 -6.58942 0.0 0.0 -0.0 0.0 -0.0 -16.9927 28.9092 3.38213 -17.7606 -0.315572 -2.69636 32.3114 -9.93711 4.14038 -2.39828 0.0 0.0 0.0 0.0 0.0 
758.762 714.349 -548.915 -179.45 -79.5429 178.171 -3.62376 0.990685 3.80752 -3.61601 0.746582 3.86273 -3.55227 -0.325403 3.92065 -3.57359 0.297385 3.92287 -0.0984107 6.83706 -7.3225 0.387561 18.1481 -7.22357 -0.0 0.0 -0.0 0.683095 20.7095 3.39979 -15.4036 -30.4618 63.7376 0.390825 -10.9573 0.0374853 10.6375 0.251622 -1.3336 -0.375145 25.1938 7.85717 -0.0 0.0 -0.0 11.2863 27.7412 -21.5565 0.453141 22.3038 -48.2162 3.46122 59.7335 -1.98802 -14.4063 0.724122 -1.68889 -1.82381 5.74343 14.9016 0.0 0.0 0.0 29.8442 22.187 -0.482859 -10.2089 0.283855 1.53895 -9.2811 18.5674 1.40315 -4.07181 0.0 0.0 -0.0 0.0 -0.0 -18.4461 28.5308 3.96152 -19.7256 -0.298803 -2.99737 32.2131 -11.0071 4.13636 -1.50531 0.0 0.0 0.0 0.0 0.0 
784.236 709.732 -544.896 175.392 -80.9423 172.776 -3.69476 0.978195 3.8281 -3.68691 0.73281 3.88247 -3.62359 -0.348945 3.93551 -3.64509 0.276477 3.94125 1.24603 6.70199 -6.76076 1.73189 17.446 -6.85371 -0.0 0.0 -0.0 0.874469 20.0221 3.61714 -14.8818 -30.9393 62.2638 0.452271 -12.6283 0.0500447 10.6762 0.252082 -1.33852 -0.389733 25.203 7.77786 -0.0 0.0 -0.0 11.3414 27.803 -21.6734 -0.925917 21.8617 -48.7501 3.30385 58.5611 -1.85291 -15.004 0.763184 -1.75466 -1.75182 5.09385 14.1077 0.0 0.0 0.0 30.0151 22.0845 -1.16831 -14.8389 0.321403 2.24817 -8.13358 18.0384 1.22574 -2.3141 0.0 0.0 -0.0 0.0 -0.0 -19.3412 28.1469 4.21028 -21.0793 -0.281248 -3.20435 31.7084 -12.1222 4.09151 -1.06712 0.0 0.0 0.0 0.0 0.0 
802.949 717.134 -545.377 173.356 -81.2218 170.536 -3.78378 0.958382 3.76278 -3.77619 0.717184 3.81603 -3.71503 -0.352134 3.86677 -3.7358 0.262497 3.87387 2.14686 6.61808 -6.35432 2.62667 16.9488 -6.55762 -0.0 0.0 -0.0 0.980857 19.4904 3.72824 -14.3447 -31.3383 61.1557 0.502652 -13.9824 0.0616401 10.7082 0.252461 -1.3426 -0.39931 25.1918 7.71917 -0.0 0.0 -0.0 11.389 27.8514 -21.775 -2.26546 21.5576 -49.3217 3.1861 57.6293 -1.75295 -15.4387 0.79203 -1.80225 -1.69467 4.61496 13.4953 0.0 0.0 0.0 30.1441 21.9826 -1.62716 -18.1798 0.312861 2.76063 -7.3273 17.6859 1.10178 -1.08228 0.0 0.0 -0.0 0.0 -0.0 -19.8831 27.9208 4.18934 -21.9992 -0.266531 -3.34473 31.3531 -12.9018 4.06032 -0.766131 0.0 0.0 0.0 0.0 0.0 
825.32 717.413 -546.565 173.979 -80.5281 171.492 -3.84149 0.942945 3.71529 -3.83409 0.704794 3.76766 -3.77457 -0.354824 3.81649 -3.79481 0.251918 3.82465 2.46712 6.66835 -5.80599 2.91628 16.5697 -5.98923 -0.0 0.0 -0.0 1.08738 19.0776 3.8522 -13.2571 -31.8558 60.4602 0.554659 -15.3637 0.0748145 10.7315 0.252735 -1.34556 -0.402698 25.2149 7.7088 -0.0 0.0 -0.0 11.4407 27.9709 -21.8772 -3.64005 21.4732 -50.0182 3.0284 56.3015 -1.62073 -15.7543 0.813195 -1.83666 -1.62116 4.26734 12.8302 0.0 0.0 0.0 30.1752 21.945 -1.73262 -20.3552 0.291247 3.09368 -6.76741 17.5115 1.0162 -0.216264 0.0 0.0 -0.0 0.0 -0.0 -19.8991 28.0535 3.07475 -22.6864 -0.254066 -3.44945 30.9675 -13.6346 4.02579 -0.604528 0.0 0.0 0.0 0.0 0.0 
844.454 714.859 -548.141 172.167 -81.9039 170.089 -3.80079 0.830695 3.46322 -3.79433 0.608778 3.50898 -3.74582 -0.374576 3.5416 -3.76327 0.18909 3.55631 2.69523 6.68457 -5.4582 3.12515 16.2986 -5.63152 -0.0 0.0 -0.0 1.16358 18.7644 3.94081 -11.6844 -32.4574 60.1002 0.648675 -17.8141 0.101663 10.6451 0.251712 -1.33457 -0.405397 25.2352 7.70131 -0.0 0.0 -0.0 11.4686 28.0581 -21.9294 -4.56583 21.4401 -50.5205 2.70128 53.2195 -1.35346 -15.5588 0.800058 -1.81535 -1.5037 3.70736 11.7694 0.0 0.0 0.0 29.8026 21.7315 -1.68022 -21.769 0.270426 3.30962 -6.02196 17.2301 0.902471 0.437684 -0.0 -0.0 -0.0 0.0 -0.0 -18.7653 28.2087 2.19537 -23.1811 -0.244316 -3.52473 30.6812 -14.9699 4.0085 -0.777492 0.0 0.0 0.0 0.0 0.0 
866.17 729.889 -547.805 163.348 -84.583 161.978 -3.87829 0.493081 3.09165 -3.87302 0.295449 3.11673 -3.84861 -0.574483 3.07758 -3.86182 -0.0814758 3.12963 1.66068 6.88363 -4.94578 2.03275 16.251 -4.88738 -0.0 0.0 -0.0 1.25355 17.6764 3.99 -9.71687 -33.1894 59.7324 0.721714 -19.6728 0.125136 10.6112 0.251307 -1.33026 -0.215954 25.6861 8.94668 -0.0 0.0 -0.0 11.4666 27.9873 -21.9336 -5.89429 21.2837 -51.2439 2.12769 46.5 -0.914215 -15.4883 0.79534 -1.80766 -1.40265 3.17834 10.8391 0.0 0.0 0.0 28.0215 21.5863 -1.64365 -22.657 0.254626 3.44496 -3.92617 16.5996 0.585245 0.929739 -0.0 -0.0 -0.0 0.0 -0.0 -12.9894 27.1129 1.36415 -30.4286 -0.0274103 -4.61511 30.5846 -16.9192 4.02164 -0.868999 0.0 0.0 0.0 0.0 0.0 
888.581 739.679 -551.421 162.078 -86.8468 160.773 -3.87927 0.261916 2.8808 -3.87466 0.0781506 2.89162 -3.86407 -0.722299 2.80112 -3.87491 -0.271043 2.87996 0.943548 7.0051 -4.56968 1.27536 16.1785 -4.35507 -0.0 0.0 -0.0 1.76151 16.7185 4.7049 -7.65391 -33.879 59.6676 0.786902 -21.2962 0.147951 10.5874 0.251021 -1.32724 -0.0811273 25.9501 9.80814 -0.0 0.0 -0.0 11.4857 27.9301 -21.984 -6.93744 21.1662 -51.8324 1.78092 41.4155 -0.673276 -15.4491 0.792724 -1.80339 -1.33414 2.76492 10.1859 0.0 0.0 0.0 26.3585 21.4347 -1.76745 -22.5673 0.256317 3.43131 -2.46256 16.1515 0.365626 1.27414 -0.0 -0.0 -0.0 0.0 -0.0 -9.03693 26.2438 0.841756 -36.3038 0.248516 -5.4739 30.5213 -18.3423 4.03503 -0.928037 0.0 0.0 0.0 0.0 0.0 
903.828 746.619 -552.432 160.398 -87.74 159.61 -3.74827 0.0841711 2.51075 -3.74476 -0.0757135 2.51101 -3.74355 -0.760205 2.39444 -3.75136 -0.372631 2.48438 0.643755 7.07387 -4.33469 0.955525 16.1181 -4.04708 -0.0 0.0 -0.0 2.17005 15.8672 5.29356 -5.60687 -34.5233 59.6837 0.851754 -22.8763 0.172337 10.6377 0.251624 -1.33363 0.0114194 25.983 10.3452 -0.0 0.0 -0.0 11.5692 27.6172 -22.2114 -8.30626 20.943 -52.609 1.54517 37.4289 -0.523473 -15.4509 0.792841 -1.80358 -1.28255 2.43667 9.68762 0.0 0.0 0.0 25.1675 21.2211 -2.15705 -21.4907 0.274945 3.26716 -1.6872 15.8467 0.249927 1.426 -0.0 -0.0 -0.0 0.0 -0.0 -6.64309 25.2766 0.68939 -41.408 0.558766 -6.19425 30.3866 -19.4675 4.03808 -1.00344 0.0 0.0 0.0 0.0 0.0 
933.411 754.614 -558.233 90.0001 -88.6536 90.0001 -3.80579 0.134378 2.19867 -3.8031 -0.0057666 2.20276 -3.79966 -0.610487 2.11652 -3.80581 -0.268645 2.18633 1.24948 7.74849 -2.81076 1.52662 16.0237 -2.39932 -0.0 0.0 -0.0 2.43788 15.2609 5.68655 -4.16138 -34.667 59.619 0.899789 -24.0236 0.191454 10.3508 0.248105 -1.29715 -0.112754 23.13 8.58516 -0.0 0.0 -0.0 11.2867 24.9704 -21.8698 -10.5252 20.5234 -53.6481 1.39469 34.6382 -0.434926 -15.8693 0.820953 -1.84917 -0.963128 2.87591 7.71108 0.0 0.0 0.0 22.1563 19.8214 -0.795948 -20.9276 0.28346 3.18116 -1.78134 15.0275 0.263465 2.46905 -0.0 -0.0 -0.0 0.0 -0.0 -3.29234 23.3612 -1.50839 -49.2597 1.15831 -7.24206 30.3447 -21.2428 4.06511 -0.739224 0.0 0.0 0.0 0.0 0.0 
